<?xml version="1.0" encoding="utf-8"?>
<!-- Generator: Adobe Illustrator 24.1.1, SVG Export Plug-In . SVG Version: 6.00 Build 0)  -->
<svg version="1.1" id="Layer_1" xmlns="http://www.w3.org/2000/svg" xmlns:xlink="http://www.w3.org/1999/xlink" x="0px" y="0px"
	 viewBox="0 0 512 512" style="enable-background:new 0 0 512 512;" xml:space="preserve">
<g>
	<path d="M496,190c13,3.4,18.1,11.2,15.3,23.5l-76.7,284.3c-1.4,5.5-4.4,9.4-9.2,11.8c-4.8,2.4-9.9,2.9-15.3,1.5l-207.6-56.2
		c-5.5-1.4-9.5-4.4-12.3-9.2c-2.7-4.8-3.4-9.5-2-14.3l12.3-47l-92,24.5c-13.6,3.4-22.2-1-25.6-13.3L1.1,87.8
		c-3.4-12.3,1.4-20.4,14.3-24.5L247.5,0.9c5.5-1.4,10.6-0.9,15.3,1.5c4.8,2.4,7.8,6.3,9.2,11.8l33.7,124.7L496,190 M42,92.9
		L115.6,370L316,315.8L242.4,39.7L42,92.9 M400.9,472.3l67.5-251.5L316,178.8L354.8,323c3.4,11.6-1.4,19.4-14.3,23.5l-100.2,26.6
		L227,425.2L400.9,472.3"/>
</g>
</svg>
